.
..............................Site Info...........................

 -   http://www.scenetime.com  *_*   

SceneTime is going to Close sign up on march/1, hurry up! get in before the doors are closed.

     We care to share . Join us on  http://www.scenetime.com 

    Be the first to get new release at  http://www.scenetime.com

        Seed back for speed


...................................NFO:.................................................








































          
          
              
              
                    
                    
                    
                    

El.Monstro.Del.Mar.2010.DVDSCR.AC3-2.0.XviD-SiC

Poster:
[IMG]http://img513.imageshack.us/img513/5124/elmonstro1.jpg[/IMG]

IMDB Link:
http://www.imdb.com/title/tt1652207/

Description:
They were told to never go into the water. Now the sea will rise in a tide of blood. 

MediaInfo:
General
Complete name                            : El.Monstro.Del.Mar.2010.DVDSCR.AC3-2.0.XviD-SiC.avi
Format                                   : AVI
Format/Info                              : Audio Video Interleave
File size                                : 702 MiB
Duration                                 : 1h 12mn
Overall bit rate                         : 1 356 Kbps

Video
ID                                       : 0
Format                                   : MPEG-4 Visual
Format profile                           : Advanced Simple@L5
Format settings, BVOP                    : 2
Format settings, QPel                    : No
Format settings, GMC                     : No warppoints
Format settings, Matrix                  : Default (H.263)
Muxing mode                              : Packed bitstream
Codec ID                                 : XVID
Codec ID/Hint                            : XviD
Duration                                 : 1h 12mn
Bit rate                                 : 1 156 Kbps
Width                                    : 720 pixels
Height                                   : 400 pixels
Display aspect ratio                     : 16:9
Frame rate                               : 23.976 fps
Color space                              : YUV
Chroma subsampling                       : 4:2:0
Bit depth                                : 8 bits
Scan type                                : Progressive
Compression mode                         : Lossy
Bits/(Pixel*Frame)                       : 0.167
Stream size                              : 599 MiB (85%)
Writing library                          : XviD 1.1.2 (UTC 2006-11-01)

Audio
ID                                       : 1
Format                                   : AC-3
Format/Info                              : Audio Coding 3
Mode extension                           : CM (complete main)
Codec ID                                 : 2000
Duration                                 : 1h 12mn
Bit rate mode                            : Constant
Bit rate                                 : 192 Kbps
Channel(s)                               : 2 channels
Channel positions                        : Front: L R
Sampling rate                            : 48.0 KHz
Bit depth                                : 16 bits
Compression mode                         : Lossy
Stream size                              : 99.4 MiB (14%)
Alignment                                : Aligned on interleaves
Interleave, duration                     : 64 ms (1.53 video frames)
Interleave, preload duration             : 192 ms
Title                                    : VTS_01_1 T80 2_0ch 192Kbps DELAY 32ms

Screenshots:
[IMG]http://img854.imageshack.us/img854/5986/screencap2012013013h18m.png[/IMG]
[IMG]http://img4.imageshack.us/img4/5986/screencap2012013013h18m.png[/IMG]
[IMG]http://img39.imageshack.us/img39/5986/screencap2012013013h18m.png[/IMG]
[IMG]http://img831.imageshack.us/img831/6766/screencap2012013013h19m.png[/IMG]
[IMG]http://img196.imageshack.us/img196/6766/screencap2012013013h19m.png[/IMG]


Note : This is is a new Aussie Exploitation film about three deadly vixens on the run who end up having to face off with a deadly sea creature, and is very much in the tradition of 50s grindhouse films. The film quality and everything is a bit grainy and jumpy, though it seems to be intentional. The only noticeable 'DVDSCR' tagging is a note saying 'Copyright Breaking Glass Pictures 2012' on the bottom right of the screen, unfortunately throughout most of the movie. 

Source: DVD Screener Disc - Our Own 

Enjoy!

Respects to T00NG0D, CM8, Rx, ELEKTRI4KA, PA, YeFsTe, MrRep and everyone in the struggle...RiP MU